<svg width="24" height="24" viewBox="0 0 24 24" fill="none" xmlns="http://www.w3.org/2000/svg">
<mask id="mask0_2380_11339" style="mask-type:alpha" maskUnits="userSpaceOnUse" x="0" y="0" width="24" height="24">
<rect width="24" height="24" fill="#D9D9D9"/>
</mask>
<g mask="url(#mask0_2380_11339)">
<path d="M11.9944 15.3C11.8744 15.3 11.7619 15.2792 11.6569 15.2375C11.5519 15.1958 11.4577 15.1333 11.3744 15.05L6.63286 10.3085C6.44386 10.1195 6.35352 9.90417 6.36186 9.6625C6.37019 9.42083 6.46602 9.20833 6.64936 9.025C6.83269 8.84167 7.04519 8.75 7.28686 8.75C7.52852 8.75 7.74102 8.84167 7.92436 9.025L11.9994 13.125L16.0994 9.025C16.2827 8.84167 16.4952 8.75417 16.7369 8.7625C16.9785 8.77083 17.191 8.86667 17.3744 9.05C17.5577 9.23333 17.6494 9.44583 17.6494 9.6875C17.6494 9.92917 17.5549 10.144 17.3659 10.332L12.6244 15.05C12.5344 15.1333 12.4369 15.1958 12.3319 15.2375C12.2269 15.2792 12.1144 15.3 11.9944 15.3Z" fill="#fff"/>
</g>
</svg>
