<svg width="48" height="48" viewBox="0 0 48 48" fill="none" xmlns="http://www.w3.org/2000/svg">
<path d="M21.6521 1.03584C22.0956 0.544894 22.7212 0.828144 22.9785 1.03114C24.0144 0.587021 24.373 1.18531 24.4411 1.34412C24.5092 1.50292 25.3262 3.40858 25.6642 4.67363C26.0022 5.93869 26.1371 9.82873 26.0277 11.0036C25.9402 11.9435 25.3752 15.0433 25.1037 16.4756L23.8416 20.6826C23.4222 20.7371 22.5937 20.8228 22.6356 20.7297C22.6774 20.6366 20.8423 15.514 19.9195 12.9644C18.1372 4.5168 21.0976 1.64952 21.6521 1.03584Z" fill="white"/>
<path d="M35.202 3.03861C35.8966 2.86332 36.3251 3.44016 36.4526 3.75049C37.678 3.93443 37.6775 4.6333 37.6518 4.80417C37.6262 4.97504 37.3184 7.02548 36.9218 8.27635C36.5252 9.52723 34.4548 12.8856 33.6883 13.8188C33.075 14.5654 30.7926 16.8786 29.728 17.9418L26.1644 20.814C25.739 20.6336 24.9112 20.259 25.0031 20.2029C25.0951 20.1468 26.2621 14.8299 26.8341 12.1785C29.9289 4.08176 34.3338 3.25773 35.202 3.03861Z" fill="white"/>
<path d="M44.0101 12.391C44.1559 11.7489 43.5642 11.404 43.2501 11.3118C43.0166 10.2159 42.3211 10.2686 42.1521 10.3046C41.9831 10.3406 39.9553 10.7727 38.7267 11.2254C37.4982 11.6781 34.2413 13.8042 33.3441 14.5682C32.6264 15.1794 30.4183 17.4193 29.4041 18.4628L26.6925 21.9047C26.8895 22.2764 27.2965 22.998 27.3485 22.9106C27.4005 22.8231 32.6437 21.3686 35.2588 20.6522C43.1891 17.244 43.8278 13.1936 44.0101 12.391Z" fill="white"/>
<path d="M46.709 21.5534C47.1267 21.879 46.7748 22.3833 46.5466 22.5948C46.8446 23.3877 46.2224 23.6969 46.0607 23.7577C45.8989 23.8185 43.958 24.5479 42.6953 24.8716C41.4326 25.1953 37.6636 25.4807 36.5442 25.4489C35.6486 25.4235 32.7299 25.1228 31.3826 24.9756L27.4837 24.1787C27.4839 23.8518 27.5055 23.2052 27.59 23.2338C27.6746 23.2623 32.8463 21.5851 35.4217 20.743C43.7939 18.9539 46.1869 21.1464 46.709 21.5534Z" fill="white"/>
<path d="M44.9201 30.9001C45.1965 31.417 44.6897 31.8155 44.4017 31.9501C44.4017 32.9193 43.7105 33 43.5377 33C43.3649 33 41.2915 33 39.9956 32.8385C38.6997 32.6769 35.0712 31.4655 34.0345 30.9809C33.2052 30.5932 30.5788 29.0964 29.3693 28.3964L26 25.9735C26.1152 25.6235 26.3629 24.9397 26.432 25.0043C26.5011 25.0689 31.9323 25.3543 34.6393 25.4889C43.1058 26.9426 44.5745 30.254 44.9201 30.9001Z" fill="white"/>
<path d="M38.185 41.4557C38.1227 42.0708 37.4665 42.1596 37.1462 42.1271C36.5914 43.0029 35.9612 42.706 35.8153 42.6135C35.6693 42.521 33.9178 41.4115 32.9155 40.572C31.9132 39.7326 29.5415 36.6962 28.9431 35.7035C28.4644 34.9094 27.1026 32.1514 26.4815 30.8716L25.0222 26.8792C25.3198 26.6246 25.9205 26.1392 25.9419 26.2346C25.9633 26.3299 30.388 29.4942 32.5977 31.0644C38.9177 36.9088 38.263 40.687 38.185 41.4557Z" fill="white"/>
<path d="M25.4725 46.881C25.0719 47.3518 24.4814 47.0522 24.2361 46.8436C23.2821 47.2493 22.9321 46.6471 22.8645 46.4881C22.7969 46.3291 21.9854 44.4211 21.6372 43.1609C21.289 41.9008 21.0613 38.0546 21.1325 36.8977C21.1895 35.9722 21.635 32.9287 21.8506 31.5227L22.9169 27.4078C23.3065 27.3673 24.0765 27.3089 24.04 27.3995C24.0034 27.4902 25.8483 32.6076 26.7752 35.1549C28.6579 43.5546 25.9733 46.2925 25.4725 46.881Z" fill="white"/>
<path d="M11.7846 43.3709C11.1731 43.5169 10.9035 42.8765 10.8451 42.538C9.84368 42.2697 9.95399 41.5244 10.0024 41.3436C10.0508 41.1629 10.6319 38.9943 11.162 37.6836C11.6921 36.3729 13.9607 32.9131 14.752 31.9629C15.385 31.2028 17.6676 28.8702 18.7298 27.7989L22.1775 24.9457C22.5068 25.163 23.1439 25.6114 23.0578 25.6658C22.9717 25.7202 21.1547 31.3219 20.257 34.1159C16.3821 42.5688 12.5491 43.1883 11.7846 43.3709Z" fill="white"/>
<path d="M3.84012 36.4518C3.2323 36.3392 3.19767 35.6779 3.25633 35.3613C2.42906 34.7365 2.77673 34.1329 2.88087 33.995C2.98501 33.8571 4.23464 32.2026 5.15354 31.2727C6.07244 30.3427 9.29338 28.2283 10.3318 27.7135C11.1626 27.3016 14.0231 26.1709 15.3495 25.657L19.4483 24.5304C19.6777 24.8479 20.1121 25.4864 20.0153 25.4999C19.9185 25.5134 16.4015 29.6634 14.6552 31.7367C8.31159 37.5554 4.5999 36.5926 3.84012 36.4518Z" fill="white"/>
<path d="M0.765448 23.0313C0.33267 23.4727 0.684275 24.0338 0.914174 24.2592C0.596057 25.2459 1.22742 25.5402 1.39187 25.5933C1.55632 25.6463 3.52971 26.2825 4.8161 26.5157C6.10248 26.7489 9.95355 26.6289 11.0993 26.4537C12.0159 26.3135 15.0068 25.5955 16.3877 25.254L20.3898 23.8211C20.395 23.4295 20.3837 22.6573 20.2967 22.7019C20.2098 22.7465 14.9469 21.3704 12.3264 20.6768C3.79119 19.559 1.30642 22.4795 0.765448 23.0313Z" fill="white"/>
<path d="M2.07991 15.3624C1.80345 14.7808 2.31029 14.3326 2.59827 14.1812C2.59827 13.0908 3.28948 13 3.46227 13C3.63505 13 5.70848 13 7.00437 13.1817C8.30026 13.3634 11.9288 14.7264 12.9655 15.2715C13.7948 15.7076 16.4212 17.3916 17.6307 18.1791L21 20.9049C20.8848 21.2986 20.6371 22.0679 20.568 21.9952C20.4989 21.9225 15.0677 21.6015 12.3607 21.45C3.89423 19.8145 2.42548 16.0892 2.07991 15.3624Z" fill="white"/>
<path d="M9.32269 5.30553C9.39736 4.67482 10.0617 4.57606 10.3846 4.60552C10.9615 3.70187 11.5922 3.99855 11.7378 4.09153C11.8834 4.18451 13.6311 5.30026 14.6272 6.14821C15.6233 6.99616 17.9604 10.0783 18.5458 11.088C19.014 11.8957 20.3367 14.7046 20.9394 16.0081L22.337 20.0803C22.0316 20.3446 21.4158 20.8489 21.396 20.7515C21.3762 20.6541 16.9683 17.4653 14.7668 15.8832C8.49613 9.97172 9.22934 6.09392 9.32269 5.30553Z" fill="white"/>
<circle cx="23.5" cy="23.5" r="5.5" fill="#FFAE00"/>
</svg>
