<svg width="67" height="67" viewBox="0 0 67 67" fill="none" xmlns="http://www.w3.org/2000/svg">
<g filter="url(#filter0_d_1006_2658)">
<path d="M31.07 10.2722C31.5136 9.78122 32.1391 10.0645 32.3965 10.2675C33.4324 9.82335 33.791 10.4216 33.8591 10.5804C33.9272 10.7392 34.7442 12.6449 35.0822 13.91C35.4202 15.175 35.5551 19.0651 35.4457 20.2399C35.3581 21.1798 34.7932 24.2796 34.5216 25.712L33.2596 29.9189C32.8402 29.9734 32.0117 30.0591 32.0535 29.966C32.0954 29.8729 30.2602 24.7504 29.3375 22.2007C27.5551 13.7531 30.5156 10.8858 31.07 10.2722Z" fill="white"/>
<path d="M44.62 12.2749C45.3145 12.0996 45.7431 12.6765 45.8705 12.9868C47.096 13.1708 47.0954 13.8696 47.0698 14.0405C47.0441 14.2114 46.7364 16.2618 46.3398 17.5127C45.9432 18.7636 43.8728 22.1219 43.1062 23.0552C42.493 23.8018 40.2105 26.1149 39.146 27.1782L35.5824 30.0503C35.157 29.87 34.3291 29.4953 34.4211 29.4392C34.513 29.3831 35.6801 24.0662 36.2521 21.4148C39.3469 13.3181 43.7517 12.4941 44.62 12.2749Z" fill="white"/>
<path d="M53.428 21.6273C53.5739 20.9852 52.9822 20.6403 52.6681 20.5481C52.4346 19.4522 51.7391 19.5049 51.5701 19.5409C51.4011 19.577 49.3732 20.009 48.1447 20.4618C46.9162 20.9145 43.6593 23.0405 42.7621 23.8045C42.0443 24.4157 39.8363 26.6556 38.822 27.6991L36.1105 31.141C36.3075 31.5127 36.7144 32.2344 36.7665 32.1469C36.8185 32.0594 42.0617 30.6049 44.6768 29.8886C52.6071 26.4803 53.2457 22.4299 53.428 21.6273Z" fill="white"/>
<path d="M56.127 30.7897C56.5447 31.1154 56.1928 31.6197 55.9646 31.8311C56.2626 32.624 55.6404 32.9332 55.4786 32.994C55.3169 33.0548 53.376 33.7842 52.1133 34.1079C50.8506 34.4317 47.0816 34.717 45.9621 34.6852C45.0666 34.6598 42.1479 34.3591 40.8005 34.212L36.9016 33.415C36.9018 33.0881 36.9234 32.4416 37.008 32.4701C37.0925 32.4987 42.2643 30.8215 44.8396 29.9793C53.2119 28.1903 55.6048 30.3827 56.127 30.7897Z" fill="white"/>
<path d="M54.3381 40.1365C54.6145 40.6533 54.1077 41.0518 53.8197 41.1864C53.8197 42.1556 53.1285 42.2363 52.9557 42.2363C52.7829 42.2363 50.7095 42.2363 49.4136 42.0748C48.1177 41.9133 44.4892 40.7018 43.4525 40.2172C42.6231 39.8295 39.9968 38.3327 38.7873 37.6327L35.418 35.2098C35.5332 34.8598 35.7808 34.176 35.8499 34.2406C35.919 34.3052 41.3503 34.5906 44.0572 34.7252C52.5237 36.179 53.9925 39.4903 54.3381 40.1365Z" fill="white"/>
<path d="M47.603 50.6921C47.5407 51.3071 46.8844 51.3959 46.5641 51.3634C46.0093 52.2392 45.3792 51.9423 45.2332 51.8498C45.0873 51.7574 43.3357 50.6478 42.3335 49.8084C41.3312 48.9689 38.9595 45.9325 38.3611 44.9398C37.8824 44.1457 36.5206 41.3877 35.8995 40.1079L34.4401 36.1155C34.7378 35.8609 35.3384 35.3755 35.3598 35.4709C35.3812 35.5663 39.806 38.7305 42.0157 40.3007C48.3357 46.1451 47.6809 49.9233 47.603 50.6921Z" fill="white"/>
<path d="M34.8905 56.1173C34.4899 56.5881 33.8993 56.2885 33.6541 56.0799C32.7001 56.4857 32.3501 55.8834 32.2825 55.7244C32.2148 55.5654 31.4033 53.6574 31.0551 52.3973C30.7069 51.1371 30.4793 47.2909 30.5505 46.134C30.6075 45.2085 31.053 42.1651 31.2686 40.759L32.3349 36.6441C32.7245 36.6036 33.4945 36.5452 33.4579 36.6359C33.4214 36.7265 35.2662 41.8439 36.1932 44.3913C38.0759 52.7909 35.3912 55.5288 34.8905 56.1173Z" fill="white"/>
<path d="M21.2026 52.6072C20.5911 52.7532 20.3214 52.1128 20.2631 51.7743C19.2617 51.506 19.372 50.7607 19.4204 50.58C19.4688 50.3992 20.0499 48.2306 20.58 46.9199C21.1101 45.6092 23.3787 42.1494 24.1699 41.1992C24.8029 40.4391 27.0855 38.1065 28.1477 37.0353L31.5955 34.182C31.9248 34.3994 32.5619 34.8477 32.4758 34.9021C32.3896 34.9565 30.5727 40.5582 29.6749 43.3522C25.8001 51.8052 21.967 52.4246 21.2026 52.6072Z" fill="white"/>
<path d="M13.2581 45.6882C12.6503 45.5755 12.6156 44.9142 12.6743 44.5977C11.847 43.9728 12.1947 43.3692 12.2988 43.2313C12.403 43.0935 13.6526 41.4389 14.5715 40.509C15.4904 39.579 18.7113 37.4647 19.7498 36.9498C20.5806 36.5379 23.4411 35.4072 24.7675 34.8933L28.8663 33.7667C29.0956 34.0843 29.53 34.7227 29.4332 34.7362C29.3364 34.7497 25.8195 38.8997 24.0731 40.973C17.7296 46.7917 14.0179 45.829 13.2581 45.6882Z" fill="white"/>
<path d="M10.1656 32.8045C9.77334 33.2113 10.1674 33.7073 10.4135 33.9044C10.1793 34.7986 10.8285 35.0482 10.9956 35.092C11.1628 35.1357 13.1686 35.6609 14.4612 35.8402C15.7539 36.0194 19.5567 35.8208 20.6766 35.6363C21.5726 35.4887 24.4749 34.773 25.814 34.4336L29.6587 33.0517C29.6318 32.6996 29.5575 32.006 29.475 32.0481C29.3925 32.0902 24.0695 30.9777 21.4183 30.4162C12.8768 29.6129 10.656 32.2959 10.1656 32.8045Z" fill="white"/>
<path d="M11.4979 24.5987C11.2214 24.0172 11.7283 23.5689 12.0162 23.4175C12.0162 22.3271 12.7074 22.2363 12.8802 22.2363C13.053 22.2363 15.1264 22.2363 16.4223 22.418C17.7182 22.5998 21.3467 23.9627 22.3834 24.5078C23.2128 24.944 25.8392 26.6279 27.0486 27.4154L30.418 30.1412C30.3028 30.5349 30.0551 31.3042 29.986 31.2315C29.9169 31.1588 24.4857 30.8378 21.7787 30.6864C13.3122 29.0509 11.8435 25.3256 11.4979 24.5987Z" fill="white"/>
<path d="M18.7407 14.5419C18.8153 13.9111 19.4797 13.8124 19.8026 13.8419C20.3795 12.9382 21.0101 13.2349 21.1558 13.3279C21.3014 13.4208 23.049 14.5366 24.0451 15.3845C25.0412 16.2325 27.3784 19.3146 27.9637 20.3243C28.432 21.1321 29.7546 23.941 30.3574 25.2445L31.755 29.3166C31.4495 29.581 30.8337 30.0853 30.814 29.9878C30.7942 29.8904 26.3863 26.7017 24.1848 25.1195C17.9141 19.2081 18.6473 15.3302 18.7407 14.5419Z" fill="white"/>
<circle cx="32.918" cy="32.7363" r="5.5" fill="#FFAE00"/>
</g>
<line x1="21.7682" y1="17.2915" x2="29.4741" y2="27.8871" stroke="#EAEAEA" stroke-opacity="0.1" stroke-width="0.5" stroke-linecap="round"/>
<line x1="32.8482" y1="13.4897" x2="32.6727" y2="26.5899" stroke="#EAEAEA" stroke-opacity="0.1" stroke-width="0.5" stroke-linecap="round"/>
<line x1="44.1223" y1="15.4318" x2="36.9863" y2="26.4193" stroke="#EAEAEA" stroke-opacity="0.1" stroke-width="0.5" stroke-linecap="round"/>
<line x1="50.1077" y1="23.5778" x2="38.7604" y2="30.1268" stroke="#EAEAEA" stroke-opacity="0.1" stroke-width="0.5" stroke-linecap="round"/>
<line x1="52.7709" y1="32.4952" x2="39.6781" y2="32.9698" stroke="#EAEAEA" stroke-opacity="0.1" stroke-width="0.5" stroke-linecap="round"/>
<line x1="50.8969" y1="39.9933" x2="38.5697" y2="35.5563" stroke="#EAEAEA" stroke-opacity="0.1" stroke-width="0.5" stroke-linecap="round"/>
<line x1="45.2519" y1="48.2316" x2="36.6999" y2="38.3063" stroke="#EAEAEA" stroke-opacity="0.1" stroke-width="0.5" stroke-linecap="round"/>
<line x1="33.4381" y1="52.5924" x2="33.0529" y2="39.4966" stroke="#EAEAEA" stroke-opacity="0.1" stroke-width="0.5" stroke-linecap="round"/>
<line x1="22.349" y1="49.2189" x2="29.5986" y2="38.3059" stroke="#EAEAEA" stroke-opacity="0.1" stroke-width="0.5" stroke-linecap="round"/>
<line x1="15.4826" y1="43.6171" x2="26.2638" y2="36.173" stroke="#EAEAEA" stroke-opacity="0.1" stroke-width="0.5" stroke-linecap="round"/>
<line x1="12.6642" y1="33.2394" x2="25.7633" y2="32.9909" stroke="#EAEAEA" stroke-opacity="0.1" stroke-width="0.5" stroke-linecap="round"/>
<line x1="15.1256" y1="24.95" x2="27.4804" y2="29.3096" stroke="#EAEAEA" stroke-opacity="0.1" stroke-width="0.5" stroke-linecap="round"/>
<defs>
<filter id="filter0_d_1006_2658" x="0" y="0" width="66.3213" height="66.3682" filterUnits="userSpaceOnUse" color-interpolation-filters="sRGB">
<feFlood flood-opacity="0" result="BackgroundImageFix"/>
<feColorMatrix in="SourceAlpha" type="matrix" values="0 0 0 0 0 0 0 0 0 0 0 0 0 0 0 0 0 0 127 0" result="hardAlpha"/>
<feOffset/>
<feGaussianBlur stdDeviation="5"/>
<feComposite in2="hardAlpha" operator="out"/>
<feColorMatrix type="matrix" values="0 0 0 0 0 0 0 0 0 0 0 0 0 0 0 0 0 0 0.5 0"/>
<feBlend mode="normal" in2="BackgroundImageFix" result="effect1_dropShadow_1006_2658"/>
<feBlend mode="normal" in="SourceGraphic" in2="effect1_dropShadow_1006_2658" result="shape"/>
</filter>
</defs>
</svg>
