<svg width="40" height="40" viewBox="0 0 40 40" fill="none" xmlns="http://www.w3.org/2000/svg">
<path d="M10.7456 35.8079C9.27243 36.299 6.91533 35.9552 9.27243 30.6517C11.6295 25.3482 17.1294 22.5491 19.5847 21.8125C23.1204 27.7053 22.04 34.0892 21.0578 36.5445C21.0578 38.9016 18.1115 38.9998 16.6383 38.7543C13.1026 40.5221 11.2366 37.5266 10.7456 35.8079Z" fill="url(#paint0_linear_726_15)"/>
<path d="M4.00743 16.3227C3.15181 15.0268 2.87378 12.661 8.60661 13.5652C14.3394 14.4693 18.4665 19.0574 19.8136 21.2384C15.0367 26.1788 8.59078 26.7874 5.96493 26.4742C3.68815 27.0843 2.83071 24.2637 2.68658 22.7772C0.0638991 19.8195 2.47436 17.2418 4.00743 16.3227Z" fill="url(#paint1_linear_726_15)"/>
<path d="M19.3217 4.2704C20.1863 2.98052 22.261 1.81002 23.642 7.44703C25.0231 13.084 22.386 18.6634 20.8947 20.7485C14.4924 18.2514 11.4405 12.5411 10.7148 9.99817C9.27246 8.13389 11.5427 6.25323 12.8581 5.54594C14.5727 1.98416 17.8816 3.21151 19.3217 4.2704Z" fill="url(#paint2_linear_726_15)"/>
<path d="M36.2052 12.9615C37.7398 13.1994 39.6779 14.5843 35.1541 18.22C30.6304 21.8557 24.4593 21.826 21.9392 21.3567C21.4939 14.499 25.3773 9.31829 27.3746 7.58511C28.4539 5.48957 31.1182 6.75128 32.3155 7.64408C36.2682 7.69125 36.5556 11.2087 36.2052 12.9615Z" fill="url(#paint3_linear_726_15)"/>
<path d="M30.8761 34.3218C30.8679 35.8746 29.7852 37.9964 25.52 34.0605C21.2549 30.1247 20.3709 24.0171 20.4621 21.4552C27.1783 19.9999 32.8767 23.0738 34.8864 24.7927C37.1185 25.5499 36.265 28.3716 35.5593 29.6879C36.0976 33.6041 32.6615 34.4089 30.8761 34.3218Z" fill="url(#paint4_linear_726_15)"/>
<mask id="path-6-inside-1_726_15" fill="white">
<ellipse cx="19.291" cy="22.1259" rx="1.13473" ry="1.13474"/>
</mask>
<ellipse cx="19.291" cy="22.1259" rx="1.13473" ry="1.13474" fill="#FF8000"/>
<path d="M20.4257 22.1259H18.4257C18.4257 21.6481 18.8131 21.2607 19.291 21.2607V23.2607V25.2607C21.0223 25.2607 22.4257 23.8572 22.4257 22.1259H20.4257ZM19.291 23.2607V21.2607C19.7689 21.2607 20.1562 21.6481 20.1562 22.1259H18.1562H16.1562C16.1562 23.8572 17.5597 25.2607 19.291 25.2607V23.2607ZM18.1562 22.1259H20.1562C20.1562 22.6038 19.7689 22.9912 19.291 22.9912V20.9912V18.9912C17.5597 18.9912 16.1562 20.3947 16.1562 22.1259H18.1562ZM19.291 20.9912V22.9912C18.8131 22.9912 18.4257 22.6038 18.4257 22.1259H20.4257H22.4257C22.4257 20.3947 21.0223 18.9912 19.291 18.9912V20.9912Z" fill="white" mask="url(#path-6-inside-1_726_15)"/>
<mask id="path-8-inside-2_726_15" fill="white">
<ellipse cx="19.715" cy="19.9992" rx="1.27657" ry="1.27658"/>
</mask>
<ellipse cx="19.715" cy="19.9992" rx="1.27657" ry="1.27658" fill="#FF8000"/>
<path d="M20.9916 19.9992H18.9916C18.9916 19.5997 19.3155 19.2758 19.715 19.2758V21.2758V23.2758C21.5247 23.2758 22.9916 21.8088 22.9916 19.9992H20.9916ZM19.715 21.2758V19.2758C20.1146 19.2758 20.4385 19.5997 20.4385 19.9992H18.4385H16.4385C16.4385 21.8088 17.9054 23.2758 19.715 23.2758V21.2758ZM18.4385 19.9992H20.4385C20.4385 20.3988 20.1146 20.7227 19.715 20.7227V18.7227V16.7227C17.9054 16.7227 16.4385 18.1896 16.4385 19.9992H18.4385ZM19.715 18.7227V20.7227C19.3155 20.7227 18.9916 20.3988 18.9916 19.9992H20.9916H22.9916C22.9916 18.1896 21.5247 16.7227 19.715 16.7227V18.7227Z" fill="white" mask="url(#path-8-inside-2_726_15)"/>
<ellipse cx="21.7009" cy="19.4314" rx="0.992886" ry="0.992893" fill="#FF8000"/>
<mask id="path-11-inside-3_726_15" fill="white">
<ellipse cx="22.9785" cy="20.708" rx="1.13473" ry="1.13474"/>
</mask>
<ellipse cx="22.9785" cy="20.708" rx="1.13473" ry="1.13474" fill="#FF8000"/>
<path d="M24.1132 20.708H22.1132C22.1132 20.2301 22.5006 19.8427 22.9785 19.8427V21.8427V23.8427C24.7098 23.8427 26.1132 22.4392 26.1132 20.708H24.1132ZM22.9785 21.8427V19.8427C23.4564 19.8427 23.8438 20.2301 23.8438 20.708H21.8438H19.8438C19.8438 22.4392 21.2472 23.8427 22.9785 23.8427V21.8427ZM21.8438 20.708H23.8438C23.8438 21.1858 23.4564 21.5732 22.9785 21.5732V19.5732V17.5732C21.2472 17.5732 19.8438 18.9767 19.8438 20.708H21.8438ZM22.9785 19.5732V21.5732C22.5006 21.5732 22.1132 21.1858 22.1132 20.708H24.1132H26.1132C26.1132 18.9767 24.7098 17.5732 22.9785 17.5732V19.5732Z" fill="white" mask="url(#path-11-inside-3_726_15)"/>
<ellipse cx="20.8502" cy="21.1335" rx="3.26234" ry="3.26236" fill="white"/>
<defs>
<linearGradient id="paint0_linear_726_15" x1="15.1456" y1="21.8125" x2="15.1456" y2="39.294" gradientUnits="userSpaceOnUse">
<stop stop-color="#FF9D00"/>
<stop offset="1" stop-color="#FF8000"/>
</linearGradient>
<linearGradient id="paint1_linear_726_15" x1="8.44288" y1="12.5738" x2="12.0007" y2="25.8517" gradientUnits="userSpaceOnUse">
<stop stop-color="#FF9D00"/>
<stop offset="1" stop-color="#FF8000"/>
</linearGradient>
<linearGradient id="paint2_linear_726_15" x1="13.7084" y1="4.20564" x2="24.4058" y2="18.032" gradientUnits="userSpaceOnUse">
<stop stop-color="#FF9D00"/>
<stop offset="1" stop-color="#FF8000"/>
</linearGradient>
<linearGradient id="paint3_linear_726_15" x1="33.8897" y1="7.84769" x2="25.8856" y2="23.3892" gradientUnits="userSpaceOnUse">
<stop stop-color="#FF9D00"/>
<stop offset="1" stop-color="#FF8000"/>
</linearGradient>
<linearGradient id="paint4_linear_726_15" x1="29.5214" y1="21.9581" x2="25.1055" y2="34.9758" gradientUnits="userSpaceOnUse">
<stop stop-color="#FF9D00"/>
<stop offset="1" stop-color="#FF8000"/>
</linearGradient>
</defs>
</svg>
