<svg width="240" height="100" viewBox="0 0 240 100" fill="none" xmlns="http://www.w3.org/2000/svg">
<rect width="240" height="100" rx="50" fill="#3D9D71"/>
<path d="M69.88 24.92C70.8933 24.6 72.04 24.3333 73.32 24.12C74.6533 23.9067 75.8533 23.8 76.92 23.8C78.1467 23.8 79.32 23.9333 80.44 24.2C81.6133 24.4133 82.6533 24.8133 83.56 25.4C84.4667 25.9333 85.1867 26.68 85.72 27.64C86.2533 28.6 86.52 29.8 86.52 31.24V52.52H93.64C93.96 53.1067 94.28 53.88 94.6 54.84C94.92 55.8 95.08 56.8133 95.08 57.88C95.08 59.9067 94.6267 61.3467 93.72 62.2C92.8133 63.0533 91.6667 63.48 90.28 63.48H86.52V72.92C85.9333 73.0267 85.0533 73.16 83.88 73.32C82.7067 73.5333 81.5867 73.64 80.52 73.64C79.3467 73.64 78.3067 73.5867 77.4 73.48C76.4933 73.3733 75.72 73.1333 75.08 72.76C74.4933 72.3333 74.04 71.7467 73.72 71C73.4 70.2533 73.24 69.24 73.24 67.96V63.48H53.16C51.9333 62.84 50.8667 61.9067 49.96 60.68C49.1067 59.4 48.68 57.8533 48.68 56.04C48.68 55.0267 48.8133 53.9067 49.08 52.68C49.3467 51.4533 49.8 50.3867 50.44 49.48L69.88 24.92ZM73.96 37.48H73.72L63.08 52.52H73.96V37.48ZM127.497 48.68C127.497 43.9867 126.804 40.36 125.417 37.8C124.084 35.24 122.164 33.96 119.657 33.96C117.15 33.96 115.23 35.24 113.897 37.8C112.617 40.36 111.977 43.9867 111.977 48.68C111.977 53.3733 112.617 57.0267 113.897 59.64C115.23 62.2 117.15 63.48 119.657 63.48C122.164 63.48 124.084 62.2 125.417 59.64C126.804 57.0267 127.497 53.3733 127.497 48.68ZM141.177 48.68C141.177 52.7867 140.644 56.44 139.577 59.64C138.51 62.84 137.017 65.5333 135.097 67.72C133.23 69.8533 130.964 71.48 128.297 72.6C125.684 73.72 122.83 74.28 119.737 74.28C116.59 74.28 113.684 73.72 111.017 72.6C108.404 71.48 106.137 69.8533 104.217 67.72C102.35 65.5333 100.884 62.84 99.8169 59.64C98.8035 56.44 98.2969 52.7867 98.2969 48.68C98.2969 44.5733 98.8035 40.9467 99.8169 37.8C100.884 34.6 102.35 31.9333 104.217 29.8C106.137 27.6133 108.404 25.96 111.017 24.84C113.684 23.72 116.59 23.16 119.737 23.16C122.83 23.16 125.684 23.72 128.297 24.84C130.964 25.96 133.23 27.6133 135.097 29.8C137.017 31.9333 138.51 34.6 139.577 37.8C140.644 40.9467 141.177 44.5733 141.177 48.68ZM166.483 24.92C167.496 24.6 168.643 24.3333 169.923 24.12C171.256 23.9067 172.456 23.8 173.523 23.8C174.75 23.8 175.923 23.9333 177.043 24.2C178.216 24.4133 179.256 24.8133 180.163 25.4C181.07 25.9333 181.79 26.68 182.323 27.64C182.856 28.6 183.123 29.8 183.123 31.24V52.52H190.243C190.563 53.1067 190.883 53.88 191.203 54.84C191.523 55.8 191.683 56.8133 191.683 57.88C191.683 59.9067 191.23 61.3467 190.323 62.2C189.416 63.0533 188.27 63.48 186.883 63.48H183.123V72.92C182.536 73.0267 181.656 73.16 180.483 73.32C179.31 73.5333 178.19 73.64 177.123 73.64C175.95 73.64 174.91 73.5867 174.003 73.48C173.096 73.3733 172.323 73.1333 171.683 72.76C171.096 72.3333 170.643 71.7467 170.323 71C170.003 70.2533 169.843 69.24 169.843 67.96V63.48H149.763C148.536 62.84 147.47 61.9067 146.563 60.68C145.71 59.4 145.283 57.8533 145.283 56.04C145.283 55.0267 145.416 53.9067 145.683 52.68C145.95 51.4533 146.403 50.3867 147.043 49.48L166.483 24.92ZM170.563 37.48H170.323L159.683 52.52H170.563V37.48Z" fill="white"/>
<rect x="32" y="45" width="174" height="4" fill="#3D9D71"/>
</svg>
